<?xml version="1.0" encoding="utf-8"?>
<!-- Generator: Adobe Illustrator 18.1.0, SVG Export Plug-In . SVG Version: 6.00 Build 0)  -->
<svg version="1.1" id="Layer_1" xmlns="http://www.w3.org/2000/svg" xmlns:xlink="http://www.w3.org/1999/xlink" x="0px" y="0px"
	 viewBox="0 0 48.1 48" enable-background="new 0 0 48.1 48" xml:space="preserve">
<g>
	<defs>
		<rect id="SVGID_1_" y="0" width="48.1" height="48"/>
	</defs>
	<clipPath id="SVGID_2_">
		<use xlink:href="#SVGID_1_"  overflow="visible"/>
	</clipPath>
	<path clip-path="url(#SVGID_2_)" fill="#E1E1E1" stroke="#E1E1E1" stroke-miterlimit="10" d="M45.6,45.5H2.5V12.7h43.1V45.5z
		 M45.6,10.7H2.5c-1.1,0-2,0.9-2,2v32.8c0,1.1,0.9,2,2,2h43.1c1.1,0,2-0.9,2-2V12.7C47.6,11.6,46.7,10.7,45.6,10.7"/>
	<path clip-path="url(#SVGID_2_)" fill="#E1E1E1" stroke="#E1E1E1" stroke-miterlimit="10" d="M45.6,45.5H2.5V12.7h43.1V45.5z
		 M45.6,10.7H2.5c-1.1,0-2,0.9-2,2v32.8c0,1.1,0.9,2,2,2h43.1c1.1,0,2-0.9,2-2V12.7C47.6,11.6,46.7,10.7,45.6,10.7z"/>
	
		<path clip-path="url(#SVGID_2_)" fill="none" stroke="#E1E1E1" stroke-width="3" stroke-linecap="round" stroke-miterlimit="10" d="
		M13,20.6C13,10,18,1.5,24.1,1.5s11,8.5,11,19.1"/>
</g>
</svg>
