<?xml version="1.0" encoding="utf-8"?>
<!-- Generator: Adobe Illustrator 18.1.0, SVG Export Plug-In . SVG Version: 6.00 Build 0)  -->
<svg version="1.1" id="Layer_1" xmlns="http://www.w3.org/2000/svg" xmlns:xlink="http://www.w3.org/1999/xlink" x="0px" y="0px"
	 viewBox="0 0 50.9 38.2" enable-background="new 0 0 50.9 38.2" xml:space="preserve">
<path fill="#FF0078" d="M49.8,17.1h-3.2V9.4c0-0.6-0.5-1.1-1.1-1.1H4.4c-1.2,0-2.3-1.4-2.3-3.1c0-1.7,1-3.1,2.3-3.1h41.2
	c0.6,0,1.1-0.5,1.1-1.1c0-0.6-0.5-1.1-1.1-1.1H4.4C2,0,0,2.3,0,5.2v28.6c0,2.4,2,4.4,4.4,4.4h41.2c0.6,0,1.1-0.5,1.1-1.1v-7.5h3.2
	c0.6,0,1.1-0.5,1.1-1.1V18.2C50.9,17.6,50.4,17.1,49.8,17.1z M44.5,36.1H4.4c-1.3,0-2.3-1-2.3-2.3V9.7c0.7,0.5,1.4,0.8,2.3,0.8h40.1
	v6.6h-4.1c-3.5,0-6.3,2.8-6.3,6.3c0,3.5,2.8,6.3,6.3,6.3h4.1V36.1z M48.8,27.6h-8.4c-2.3,0-4.2-1.9-4.2-4.2s1.9-4.2,4.2-4.2h8.4
	V27.6z"/>
<path fill="#FF0078" d="M45.5,4.2H5.1C4.5,4.2,4,4.7,4,5.2c0,0.6,0.5,1.1,1.1,1.1h40.5c0.6,0,1.1-0.5,1.1-1.1
	C46.6,4.7,46.1,4.2,45.5,4.2z"/>
<path fill="#FF0078" d="M40.3,22.7c-0.2,0.2-0.3,0.5-0.3,0.7c0,0.3,0.1,0.5,0.3,0.7c0.2,0.2,0.5,0.3,0.8,0.3c0.3,0,0.6-0.1,0.8-0.3
	c0.2-0.2,0.3-0.5,0.3-0.7c0-0.3-0.1-0.6-0.3-0.8C41.4,22.3,40.8,22.3,40.3,22.7z"/>
</svg>
