<?xml version="1.0" encoding="utf-8"?>
<!-- Generator: Adobe Illustrator 18.1.0, SVG Export Plug-In . SVG Version: 6.00 Build 0)  -->
<svg version="1.1" id="Layer_1" xmlns="http://www.w3.org/2000/svg" xmlns:xlink="http://www.w3.org/1999/xlink" x="0px" y="0px"
	 viewBox="57 0 152.9 153.1" enable-background="new 57 0 152.9 153.1" xml:space="preserve">
<path display="none" fill="#C8C8C8" d="M196.6,49.8l-36.2-37.1l-4.5,3.6l36.2,38L196.6,49.8z"/>
<path display="none" fill="#C8C8C8" d="M88.8,117.7l85.1-87l4.5,4.5l-84.2,85.1L88.8,117.7z"/>
<path display="none" fill="#C8C8C8" d="M66.2,129.5l15.4,15.4l-6.3,2.7l-10.9-11.8L66.2,129.5z"/>
<path display="none" fill="none" stroke="#C8C8C8" stroke-width="0.75" stroke-miterlimit="10" d="M72.5,106c0,0,9.1,2.7,19.9,12.7
	s13.6,19.9,13.6,19.9"/>
<g>
	<path fill="#C8C8C8" d="M198.7,11.7c13.7,13.7-7.9,35.1-7.9,35.1L104.2,134c-14.5,4.5-29.9,9.1-38.9,10.9c1.8-9.1,6.3-24.5,10.9-38
		l87.2-86.5C163.3,20.4,185-1.9,198.7,11.7z M157.8,15.2c-1.5,1.5-88,88-88,88s-14.5,48-12.7,49.8c0,0,0,0,0.9,0
		c7.2,0,49.8-12.7,49.8-12.7s87.6-87.1,89.2-89.2c1.6-2,22.9-26.8,6.8-44C186.3-11.6,159.3,13.8,157.8,15.2z"/>
</g>
<path fill="none" stroke="#C8C8C8" stroke-width="8" stroke-miterlimit="10" d="M74.4,104.2c8.2,1.8,15.4,4.5,20.8,10.9
	c7.2,6.3,10.9,20.8,10.9,20.8"/>
<line fill="none" stroke="#C8C8C8" stroke-width="8" stroke-miterlimit="10" x1="66.2" y1="127.7" x2="80.7" y2="144"/>
<line fill="none" stroke="#C8C8C8" stroke-width="8" stroke-miterlimit="10" x1="165.8" y1="13.6" x2="197.5" y2="39.9"/>
<path fill="none" stroke="#C8C8C8" stroke-width="0.75" stroke-miterlimit="10" d="M179.4,28.1"/>
<line fill="none" stroke="#C8C8C8" stroke-width="8" stroke-miterlimit="10" x1="96.1" y1="115" x2="182.1" y2="28.1"/>
<path fill="none" stroke="#C8C8C8" stroke-width="0.75" stroke-miterlimit="10" d="M74.4,137.6"/>
<path fill="none" stroke="#C8C8C8" stroke-width="0.75" stroke-miterlimit="10" d="M64.7,135.9"/>
</svg>
