<?xml version="1.0" encoding="utf-8"?>
<!-- Generator: Adobe Illustrator 18.1.0, SVG Export Plug-In . SVG Version: 6.00 Build 0)  -->
<svg version="1.1" id="Layer_1" xmlns="http://www.w3.org/2000/svg" xmlns:xlink="http://www.w3.org/1999/xlink" x="0px" y="0px"
	 viewBox="52 0 161.4 153.1" enable-background="new 52 0 161.4 153.1" xml:space="preserve">
<path fill="#181818" d="M97.2,36V9c0,0,0.8-9,9.9-9c9.9,0,98.1,0,98.1,0s8.1,0,8.1,9s0,132.4,0,132.4s1.4,11.7-8.1,11.7
	c-7.2,0-99,0-99,0s-9,0-9-11.7c0-9,0-24.3,0-24.3h9v27h99V9h-99v27H97.2z"/>
<path fill="#181818" d="M64.8,72h64.8c1.8,0,3.6,1.8,3.6,3.6v1.8c0,1.8-1.8,3.6-3.6,3.6H64.8c-1.8,0-3.6-1.8-3.6-3.6v-1.8
	C61.2,73.8,63,72,64.8,72z"/>
<path fill="#181818" d="M54,71.1l23.4-23.4c2.7-2.7,6.3-2.7,9,0c2.7,2.7,2.7,6.3,0,9L63,80.1c-2.7,2.7-6.3,2.7-9,0
	C51.3,77.4,51.3,72.9,54,71.1z"/>
<path fill="#181818" d="M86.4,93.6L63,71.1c-2.7-2.7-6.3-2.7-9,0c-2.7,2.7-2.7,6.3,0,9l23.4,23.4c2.7,2.7,6.3,2.7,9,0
	C89.1,100.8,89.1,96.3,86.4,93.6z"/>
</svg>
