<?xml version="1.0" encoding="utf-8"?>
<!-- Generator: Adobe Illustrator 18.1.0, SVG Export Plug-In . SVG Version: 6.00 Build 0)  -->
<svg version="1.1" id="Layer_1" xmlns="http://www.w3.org/2000/svg" xmlns:xlink="http://www.w3.org/1999/xlink" x="0px" y="0px"
	 viewBox="0 0 20 20" enable-background="new 0 0 20 20" xml:space="preserve">
<path fill="#C8C8C8" d="M10,20C4.5,20,0,15.5,0,10C0,4.5,4.5,0,10,0c5.5,0,10,4.5,10,10C20,15.5,15.5,20,10,20z M10,0.8
	c-5.1,0-9.2,4.1-9.2,9.2c0,5.1,4.1,9.2,9.2,9.2c5.1,0,9.2-4.1,9.2-9.2C19.2,4.9,15.1,0.8,10,0.8z"/>
<path fill="#C8C8C8" d="M9.5,12.1l0-0.4c-0.1-0.8,0.2-1.6,1-2.5c0.7-0.8,1.1-1.3,1.1-2C11.6,6.5,11,6.1,10,6C9.4,6,8.8,6.2,8.4,6.5
	L8,5.6C8.5,5.2,9.5,5,10.3,5C12.2,5,13,6,13,7.1c0,1-0.6,1.7-1.4,2.5c-0.7,0.7-1,1.4-0.9,2.1l0,0.4H9.5z M9.1,14.1
	c0-0.5,0.4-0.9,1-0.9c0.6,0,1,0.4,1,0.9c0,0.5-0.4,0.9-1,0.9C9.5,15,9.1,14.6,9.1,14.1z"/>
</svg>
