<?xml version="1.0" encoding="utf-8"?>
<!-- Generator: Adobe Illustrator 18.1.0, SVG Export Plug-In . SVG Version: 6.00 Build 0)  -->
<svg version="1.1" id="Layer_1" xmlns="http://www.w3.org/2000/svg" xmlns:xlink="http://www.w3.org/1999/xlink" x="0px" y="0px"
	 viewBox="0 0 137.6 55.1" enable-background="new 0 0 137.6 55.1" xml:space="preserve">
<path fill="#787878" d="M9.5,15.7c1,0,2.1-0.1,3.2-0.5c1.1-0.3,2-0.7,2.8-1.3c0.8-0.5,1.5-1.2,2.1-2c0.5-0.8,0.8-1.7,0.9-2.7
	C18.5,8,18,6.9,17,6c-1.1-0.9-2.3-1.3-3.8-1.3c-1.4,0-2.6,0.2-3.6,0.6c-1,0.4-1.9,0.9-2.7,1.6C6.1,7.6,5.5,8.4,5,9.3
	c-0.5,0.9-0.8,1.9-1.1,2.8c-0.8-1-1.1-2.3-1.1-3.7c0-1.1,0.2-2,0.4-2.8c0.2-0.8,0.5-1.4,0.8-1.9c0.3-0.6,0.7-1.1,1.1-1.5
	c0.2,0.4,0.6,0.6,1.1,0.4c0.5-0.1,0.9-0.4,1.2-0.9c0.2-0.3,0.3-0.7,0.2-1.2C7.8,0.2,7.5,0,7,0c-0.5,0-1,0.2-1.6,0.6
	C4.7,1,4.2,1.6,3.7,2.3C3.1,3,2.7,3.9,2.3,4.9c-0.4,1-0.6,2.2-0.6,3.5c0,1.2,0.1,2.3,0.5,3.2c0.4,0.9,0.9,1.6,1.6,2.2
	c0,0.2-0.1,0.4-0.1,0.6c0,0.2,0,0.4,0,0.6c0,1.6,0.3,3,1,4.2c0.6,1.2,1.4,2.2,2.4,3.2c0.9,1,2,1.9,3.1,2.8c1.1,0.9,2.1,1.9,3.1,3
	c0.9,1.1,1.7,2.3,2.4,3.7c0.6,1.4,1,3.1,1,5c0,1.2-0.2,2.3-0.6,3.4c-0.4,1.1-0.9,2.1-1.6,3c-0.7,0.9-1.4,1.6-2.3,2.1
	c-0.9,0.5-1.8,0.8-2.7,0.8c-0.9,0-1.7-0.2-2.5-0.6c-0.7-0.4-1.3-1-1.9-1.8c-0.5-0.8-0.9-1.7-1.2-2.7c-0.3-1-0.4-2.1-0.4-3.3
	c0-2.8,0.5-4.8,1.4-6.3c0.9-1.4,2-2.1,3.2-2.1c0.8,0,1.5,0.5,2.1,1.4c0.6,0.9,1,2.2,1.1,3.9c0,0.7-0.1,1.4-0.2,2
	c-0.2,0.7-0.4,1.3-0.6,1.8c-0.3,0.5-0.6,1-0.9,1.4c-0.3,0.4-0.6,0.5-0.9,0.5c0.2-0.2,0.3-0.5,0.3-0.8c0-0.3-0.2-0.5-0.3-0.7
	c-0.2-0.2-0.4-0.3-0.6-0.2c-0.2,0-0.5,0.2-0.7,0.5c-0.3,0.4-0.3,0.9-0.1,1.4c0.2,0.5,0.8,0.8,1.7,0.8c0.3,0,0.7-0.2,1.1-0.6
	c0.4-0.4,0.8-0.9,1.1-1.5c0.4-0.6,0.7-1.3,0.9-2.1c0.2-0.8,0.4-1.6,0.4-2.5c0-0.8-0.2-1.6-0.4-2.4c-0.2-0.8-0.5-1.5-0.9-2
	c-0.4-0.6-0.8-1.1-1.4-1.4c-0.5-0.4-1.2-0.5-1.9-0.5s-1.5,0.2-2.4,0.6s-1.8,1-2.6,1.9c-0.8,0.8-1.5,1.9-2,3.1
	C0.2,35.3,0,36.8,0,38.5c0,1.4,0.3,2.6,0.8,3.8c0.5,1.1,1.1,2,1.9,2.9c0.8,0.8,1.8,1.4,2.9,1.8c1.1,0.4,2.4,0.6,3.7,0.6
	c1.6,0,3.2-0.3,4.6-0.8c1.4-0.5,2.7-1.2,3.8-2.2c1.1-0.9,1.9-2.1,2.5-3.4c0.6-1.4,0.9-2.9,0.9-4.6c0-1.8-0.3-3.4-0.9-4.7
	c-0.6-1.3-1.4-2.5-2.3-3.5c-0.9-1-1.9-2-3.1-2.8c-1.1-0.9-2.2-1.8-3.1-2.8c-1-1-1.8-2-2.6-3.1c-0.7-1.1-1.2-2.5-1.4-4
	C8.3,15.6,8.9,15.7,9.5,15.7L9.5,15.7z M14.6,6.3c0.4,0.2,0.8,0.5,1.1,0.8c0.3,0.3,0.5,0.7,0.7,1.1c0.1,0.4,0.2,0.8,0.2,1.1
	c0,0.8-0.3,1.5-0.7,2.1C15.5,12,15,12.6,14.3,13c-0.7,0.4-1.4,0.8-2.2,1c-0.8,0.2-1.6,0.4-2.5,0.4c-0.7,0-1.4-0.1-2-0.2v-0.1
	c0-1,0.2-1.9,0.5-2.9c0.3-1,0.7-1.9,1.2-2.6c0.5-0.8,1.1-1.4,1.7-1.9c0.7-0.5,1.4-0.7,2.1-0.7C13.7,5.9,14.1,6.1,14.6,6.3z"/>
<path fill="#787878" d="M39.5,16.1c-1.1-0.3-2.3-0.4-3.4-0.4c-1.2,0-2.3,0.2-3.5,0.4c-1.2,0.2-2.3,0.5-3.4,0.9
	c0.1-1.4,0.2-2.7,0.4-4c0.1-1.3,0.3-2.4,0.4-3.4c0.1-1,0.2-1.8,0.2-2.4c0.1-0.6,0.1-1,0.1-1.2c0-0.3-0.2-0.5-0.6-0.6
	c-0.4-0.1-0.9-0.1-1.4,0c-0.5,0.1-1,0.2-1.5,0.4c-0.5,0.2-0.7,0.5-0.8,0.8c-0.3,1.3-0.6,3-0.9,5.1c-0.3,2.1-0.6,4.4-0.8,6.9
	c-0.6,0.2-1.1,0.3-1.5,0.4c-0.5,0.1-0.9,0.1-1.3,0.1c-1.4,0-2.6-0.1-3.4-0.5c-0.8-0.4-1.5-0.8-2-1.3c-0.5-0.5-0.8-1-0.9-1.4
	c-0.2-0.4-0.3-0.7-0.3-0.8c0-0.2-0.2-0.2-0.4,0c-0.2,0.1-0.3,0.4-0.3,0.7c0,0.2,0.1,0.5,0.3,1c0.2,0.5,0.6,1,1.1,1.6
	c0.5,0.5,1.2,1,2.1,1.4c0.9,0.4,2.1,0.6,3.4,0.5c1,0,2-0.1,3.1-0.4c-0.2,2.4-0.2,4.7-0.2,7.1c0,2.4,0.1,4.5,0.4,6.4
	c0.3,1.9,0.8,3.4,1.4,4.6c0.7,1.2,1.5,1.8,2.7,1.8c0.5,0,1-0.3,1.6-0.8c0.5-0.5,1-1.2,1.5-2c0.5-0.8,1-1.6,1.4-2.6
	c0.4-0.9,0.8-1.8,1.2-2.7c0.3-0.9,0.6-1.6,0.8-2.2c0.2-0.6,0.3-1.1,0.4-1.3c0.1-0.5,0-0.8-0.3-0.9c-0.3-0.1-0.5-0.1-0.6,0.1
	c-0.1,0.2-0.3,0.9-0.7,2c-0.4,1.1-0.9,2.2-1.4,3.5c-0.6,1.2-1.1,2.3-1.7,3.3c-0.6,1-1.1,1.5-1.6,1.5c-0.4,0-0.7-0.6-0.8-1.8
	c-0.1-1.2-0.2-2.7-0.1-4.5c0-1.8,0.1-3.9,0.3-6.2c0.2-2.3,0.3-4.5,0.5-6.8c1.1-0.3,2.3-0.6,3.4-0.9c1.1-0.3,2.3-0.5,3.4-0.5
	c1.1-0.1,2.3,0,3.4,0.3c1.1,0.2,2.3,0.7,3.4,1.4c0.2,0.1,0.2-0.1,0.2-0.5c0-0.4-0.1-0.7-0.2-0.8C41.7,16.9,40.7,16.4,39.5,16.1z"/>
<path fill="#787878" d="M47.9,29c-0.2,0.7-0.6,1.5-1,2.4c-0.4,0.9-0.9,1.9-1.3,3c-0.5,1-1,2-1.6,2.8c-0.6,0.9-1.1,1.6-1.7,2.2
	c-0.6,0.6-1.1,0.9-1.7,0.9c-0.4,0-0.7-0.2-0.9-0.6c-0.3-0.4-0.5-0.9-0.6-1.6c-0.2-0.7-0.3-1.5-0.3-2.4c-0.1-0.9-0.1-1.8-0.1-2.8
	c0.9,0,1.7-0.2,2.4-0.9c0.7-0.6,1.4-1.4,1.9-2.3c0.5-0.9,0.9-1.9,1.2-3c0.3-1.1,0.3-2.1,0.2-3.1c-0.1-0.9-0.5-1.7-1-2.4
	c-0.6-0.6-1.4-1-2.5-1c-1.5,0-2.7,0.5-3.7,1.6c-1,1.1-1.8,2.4-2.3,4c-0.5,1.6-0.8,3.4-0.9,5.3c0,1.9,0.2,3.7,0.6,5.3
	c0.5,1.6,1.2,2.9,2.2,4c1,1.1,2.2,1.6,3.8,1.6c0.8,0,1.5-0.3,2.2-0.9c0.7-0.6,1.4-1.3,2-2.2c0.6-0.9,1.2-1.8,1.7-2.9
	c0.5-1.1,1-2.1,1.4-3c0.4-0.9,0.7-1.8,0.9-2.5c0.2-0.7,0.4-1.2,0.5-1.4c0.1-0.5,0-0.9-0.3-1.2c-0.3-0.3-0.5-0.3-0.6-0.1
	C48.3,27.9,48.1,28.3,47.9,29z M41.6,21.9c0.1,0.5,0,1,0,1.7c-0.1,0.7-0.2,1.5-0.4,2.3c-0.2,0.8-0.4,1.6-0.6,2.4
	c-0.3,0.8-0.6,1.4-0.9,2c-0.3,0.6-0.7,1-1,1.1c0-1.2,0.1-2.5,0.3-3.7c0.2-1.2,0.3-2.3,0.6-3.3c0.2-1,0.5-1.7,0.8-2.3
	c0.3-0.6,0.6-0.9,0.9-0.9C41.4,21.2,41.5,21.5,41.6,21.9z"/>
<path fill="#787878" d="M71,29c-0.2,0.7-0.5,1.5-0.8,2.5c-0.3,1-0.7,2-1.1,3.1c-0.4,1.1-0.8,2.1-1.2,3c-0.4,0.9-0.8,1.7-1.1,2.3
	c-0.4,0.6-0.6,0.9-0.8,0.9c-0.2,0-0.2-0.4-0.1-1.3c0.1-0.9,0.2-2,0.4-3.3c0.2-1.3,0.3-2.7,0.4-4.3c0.1-1.5,0-3-0.1-4.3
	c-0.2-1.3-0.5-2.4-1.1-3.3C64.9,23.5,64.1,23,63,23c-0.4,0-0.8,0.2-1.2,0.6c-0.4,0.4-0.8,0.9-1.2,1.5c-0.4,0.6-0.8,1.3-1.1,2.2
	c-0.4,0.8-0.7,1.7-1,2.6c0.1-1.3,0.2-2.6,0.2-3.9c0-1.3-0.1-2.4-0.2-3.3s-0.5-1.7-0.9-2.3c-0.4-0.6-1.1-0.9-1.9-0.9
	c-0.4,0-0.9,0.3-1.3,0.8c-0.4,0.5-0.8,1.2-1.1,2c-0.3,0.9-0.7,1.8-1,2.9c-0.3,1.1-0.6,2.2-0.8,3.2c0-0.6,0-1.1,0-1.6
	c0-0.5-0.1-1-0.1-1.4c0-0.3-0.2-0.6-0.6-0.7c-0.4-0.2-0.8-0.2-1.2-0.3c-0.4,0-0.8,0-1.2,0.2c-0.4,0.1-0.5,0.3-0.5,0.4
	c0,2.5,0,4.9-0.1,7.2s-0.1,4.6,0,6.8c0,0.4,0.2,0.6,0.5,0.7c0.3,0.1,0.7,0.1,1,0c0.4-0.1,0.7-0.3,1-0.5c0.3-0.2,0.5-0.4,0.5-0.5
	c0.2-0.9,0.4-1.8,0.5-2.7c0.1-0.5,0.2-1.2,0.5-2.1c0.2-0.9,0.5-2,0.7-3.1c0.3-1.1,0.5-2.3,0.8-3.4c0.3-1.2,0.6-2.2,0.8-3.2
	c0.3-1,0.5-1.7,0.8-2.3c0.3-0.6,0.5-0.9,0.6-0.9c0.1,0,0.2,0.4,0.2,1.1c0,0.8-0.1,1.7-0.2,2.9c-0.1,1.1-0.2,2.4-0.3,3.8
	c-0.1,1.4-0.2,2.7-0.3,3.9c-0.1,1.2-0.2,2.3-0.3,3.2c-0.1,0.9-0.1,1.5,0,1.7c0,0.1,0.2,0.2,0.5,0.3c0.3,0.1,0.7,0.1,1.1,0.2
	c0.4,0,0.7,0,1.1,0c0.3,0,0.5-0.1,0.5-0.3c0-0.6,0.1-1.3,0.2-2c0.2-1.1,0.5-2.3,0.9-3.6c0.4-1.3,0.9-2.5,1.4-3.5s0.9-2,1.4-2.7
	c0.4-0.7,0.8-1.1,1.1-1.1c0.3,0,0.4,0.4,0.3,1.4c-0.1,0.9-0.2,2-0.4,3.4c-0.2,1.4-0.4,2.8-0.5,4.4C62,35.4,62,36.9,62,38.2
	c0.1,1.4,0.3,2.5,0.8,3.4C63.3,42.5,64,43,65,43c0.6,0,1.1-0.3,1.7-1c0.6-0.7,1.1-1.5,1.6-2.5c0.5-1,1-2.1,1.4-3.3
	c0.4-1.2,0.8-2.3,1.2-3.4c0.3-1.1,0.6-2,0.8-2.8c0.2-0.8,0.3-1.3,0.4-1.5c0.2-0.5,0.1-0.8-0.2-0.9c-0.3-0.1-0.5-0.1-0.6,0.1
	C71.3,27.9,71.2,28.3,71,29z"/>
<path fill="#787878" d="M77,25.9c-0.8,1.2-1.5,2.5-2.2,4.1c0.1-0.7,0.2-1.3,0.3-1.9c0.1-0.6,0.2-1.1,0.3-1.5c0-0.2-0.1-0.4-0.5-0.6
	c-0.4-0.3-0.8-0.5-1.3-0.6c-0.5-0.2-0.9-0.2-1.3-0.2s-0.7,0.2-0.8,0.5c-0.3,1.3-0.6,3-0.9,4.9c-0.3,2-0.4,4-0.5,6.2
	c-0.1,2.2-0.1,4.4,0,6.6c0.1,2.2,0.3,4.1,0.7,5.9c0.4,1.8,0.9,3.2,1.6,4.3c0.7,1.1,1.6,1.6,2.6,1.6c0.6,0,1.1-0.6,1.5-1.7
	c0.3-1.1,0.5-2.5,0.4-4.2c0-1.6-0.3-3.4-0.8-5.2c-0.5-1.8-1.2-3.4-2.1-4.7l0.4-5.3c0.3-1,0.6-2.1,1.1-3.1c0.5-1,0.9-1.9,1.4-2.7
	c0.5-0.8,0.9-1.4,1.3-1.9c0.4-0.5,0.8-0.7,1.1-0.7c0.2,0,0.3,0.3,0.5,0.9c0.1,0.6,0.1,1.4,0.1,2.3c0,0.9-0.1,1.9-0.2,3
	c-0.1,1.1-0.3,2.1-0.6,3c-0.3,0.9-0.6,1.7-1,2.3c-0.4,0.6-0.9,0.9-1.4,0.9c-0.3,0-0.6-0.1-0.8-0.4c-0.2-0.3-0.3-0.6-0.3-0.9
	c0-0.3,0-0.7,0.1-0.9c0.1-0.3,0.3-0.4,0.6-0.4c0.1,0.6,0.5,1,1.1,1c0.2,0,0.4-0.2,0.5-0.7c0.1-0.4,0-0.8-0.3-1
	c-0.5-0.3-1.1-0.4-1.7-0.2c-0.7,0.2-1.1,0.7-1.2,1.4c-0.1,0.6,0,1.2,0.4,1.8c0.3,0.6,1,1,2.1,1c1.1,0,2.1-0.4,3-1.1
	c0.9-0.7,1.6-1.6,2.2-2.7c0.6-1.1,0.9-2.3,1.2-3.5c0.2-1.3,0.2-2.4,0-3.5c-0.2-1.1-0.6-2-1.3-2.7c-0.7-0.7-1.6-1.1-2.8-1.1
	C78.5,24.2,77.8,24.8,77,25.9z M74.2,53.1c-0.1-0.7-0.2-1.7-0.3-2.9c-0.1-1.2-0.1-2.6-0.1-4.2c0-1.6,0-3.2,0.1-4.9
	c0.6,1.2,1,2.6,1.3,4.1s0.5,2.9,0.5,4.3c0.1,1.3,0,2.5-0.2,3.4c-0.2,0.9-0.5,1.4-0.9,1.4C74.5,54.2,74.3,53.8,74.2,53.1z"/>
<path fill="#787878" d="M96.1,29.4c-0.3,0.9-0.7,1.8-1.1,2.7c-0.4,1-0.9,1.8-1.4,2.6c-0.5,0.8-1,1.1-1.4,1.1c-0.4,0-0.8-0.3-1.1-0.8
	c-0.3-0.5-0.6-1.2-0.8-2.1c-0.2-0.9-0.4-2-0.5-3.2c-0.1-1.2-0.2-2.6-0.2-4c0.6-1.4,1.2-3,1.8-4.7c0.6-1.8,1.2-3.5,1.7-5.3
	c0.5-1.8,1-3.5,1.3-5.2c0.3-1.7,0.5-3.2,0.6-4.5c0-1.3-0.1-2.4-0.5-3.2c-0.4-0.8-1-1.2-1.9-1.2c-1.1,0-2.1,0.5-3,1.6
	c-0.9,1-1.7,2.4-2.3,4.1c-0.6,1.7-1.2,3.6-1.6,5.8c-0.4,2.2-0.6,4.4-0.8,6.7c-0.1,2.3,0,4.5,0.2,6.7c0.2,2.2,0.6,4.1,1.1,5.8
	c0.5,1.7,1.3,3.1,2.2,4.1c0.9,1,2,1.6,3.4,1.6c0.6,0,1.3-0.4,1.9-1.3c0.6-0.9,1.2-1.8,1.7-2.9c0.5-1.1,0.9-2.2,1.3-3.2
	c0.3-1,0.5-1.7,0.6-2c0.1-0.5,0-0.8-0.3-0.9c-0.3-0.1-0.5-0.1-0.6,0.1C96.6,28,96.4,28.5,96.1,29.4z M93.9,4.7c0,1.3-0.2,3-0.6,5
	c-0.4,2-0.9,4.2-1.6,6.5c-0.7,2.4-1.4,4.6-2.1,6.7c0-2.3,0.1-4.7,0.3-7.1c0.2-2.4,0.4-4.6,0.7-6.5c0.3-1.9,0.6-3.5,1-4.8
	c0.4-1.2,0.8-1.9,1.2-1.9C93.5,2.7,93.9,3.4,93.9,4.7z"/>
<path fill="#787878" d="M112.4,29c-0.2,0.7-0.5,1.5-0.8,2.4c-0.3,0.9-0.7,1.9-1.1,2.9c-0.4,1-0.8,2-1.2,2.8
	c-0.4,0.9-0.7,1.6-1.1,2.1c-0.3,0.6-0.6,0.8-0.8,0.8c-0.1,0-0.2-0.5-0.2-1.4c0-0.9,0-2,0.1-3.2c0.1-1.2,0.2-2.4,0.3-3.5
	c0.1-1.1,0.3-1.9,0.4-2.3c0.1-0.2-0.1-0.4-0.4-0.6c-0.4-0.2-0.8-0.4-1.3-0.5c-0.5-0.1-1-0.2-1.4-0.2c-0.4,0-0.7,0.1-0.7,0.3
	l-0.4,2.4c-0.2,0.7-0.4,1.4-0.6,2.2c-0.2,0.8-0.5,1.6-0.7,2.3c-0.3,0.7-0.6,1.3-0.9,1.8c-0.3,0.5-0.6,0.7-1,0.7
	c-0.3,0-0.6-0.3-0.7-1c-0.1-0.7-0.2-1.5-0.2-2.5c0-1,0-2,0.1-3.2c0.1-1.1,0.2-2.2,0.4-3.2c0.2-1,0.4-1.8,0.8-2.5s0.6-1,1-1
	s0.8,0.1,1.2,0.4c0.4,0.2,0.5,0.4,0.4,0.5c-0.4,0.2-0.6,0.5-0.7,0.9c-0.1,0.4,0,0.6,0.3,0.8c0.4,0.3,0.8,0.3,1.2,0.1
	c0.4-0.3,0.7-0.6,0.8-0.9c0.1-0.3,0.1-0.6,0-0.9c-0.1-0.3-0.2-0.6-0.4-0.9c-0.2-0.3-0.5-0.5-0.8-0.8c-0.3-0.2-0.7-0.3-1.2-0.3
	c-1.9,0-3.4,0.5-4.6,1.6c-1.2,1.1-2,2.8-2.3,5.1c-0.2,1.4-0.2,2.7-0.1,3.8c0.1,1.1,0.4,2.1,0.9,2.8c0.5,0.8,1,1.4,1.7,1.8
	c0.7,0.4,1.5,0.7,2.4,0.7c0.5,0,1-0.3,1.5-1c0.5-0.7,0.8-1.5,1.2-2.5c0,1.6,0.3,3,0.7,4.2c0.4,1.2,1.2,1.7,2.3,1.7
	c0.6,0,1.1-0.3,1.7-0.9c0.6-0.6,1.1-1.3,1.6-2.3c0.5-0.9,1-1.9,1.4-3c0.5-1.1,0.9-2.1,1.2-3.1c0.3-1,0.6-1.8,0.8-2.6
	c0.2-0.7,0.3-1.2,0.4-1.4c0.1-0.5,0-0.8-0.3-0.9c-0.3-0.1-0.5-0.1-0.6,0.1C112.8,27.9,112.6,28.3,112.4,29z"/>
<path fill="#787878" d="M127.9,16.1c-1.1-0.3-2.3-0.4-3.4-0.4c-1.2,0-2.3,0.2-3.5,0.4c-1.2,0.2-2.3,0.5-3.4,0.9
	c0.1-1.4,0.2-2.7,0.4-4c0.1-1.3,0.3-2.4,0.4-3.4c0.1-1,0.2-1.8,0.2-2.4c0.1-0.6,0.1-1,0.1-1.2c0-0.3-0.2-0.5-0.6-0.6
	c-0.4-0.1-0.9-0.1-1.4,0c-0.5,0.1-1,0.2-1.5,0.4c-0.5,0.2-0.7,0.5-0.8,0.8c-0.3,1.3-0.6,3-0.9,5.1c-0.3,2.1-0.6,4.4-0.8,6.9
	c-0.6,0.2-1.1,0.3-1.5,0.4c-0.5,0.1-0.9,0.1-1.3,0.1c-1.4,0-2.6-0.1-3.4-0.5c-0.8-0.4-1.5-0.8-1.9-1.3c-0.5-0.5-0.8-1-0.9-1.4
	c-0.2-0.4-0.3-0.7-0.3-0.8c0-0.2-0.2-0.2-0.4,0c-0.2,0.1-0.3,0.4-0.3,0.7c0,0.2,0.1,0.5,0.3,1c0.2,0.5,0.6,1,1.1,1.6
	c0.5,0.5,1.2,1,2.1,1.4c0.9,0.4,2.1,0.6,3.4,0.5c1,0,2-0.1,3.1-0.4c-0.2,2.4-0.2,4.7-0.2,7.1c0,2.4,0.2,4.5,0.5,6.4
	c0.3,1.9,0.8,3.4,1.4,4.6c0.7,1.2,1.5,1.8,2.7,1.8c0.5,0,1-0.3,1.6-0.8c0.5-0.5,1-1.2,1.5-2c0.5-0.8,1-1.6,1.4-2.6
	c0.4-0.9,0.8-1.8,1.2-2.7c0.3-0.9,0.6-1.6,0.8-2.2c0.2-0.6,0.3-1.1,0.4-1.3c0.1-0.5,0-0.8-0.3-0.9c-0.3-0.1-0.5-0.1-0.6,0.1
	c-0.1,0.2-0.3,0.9-0.7,2c-0.4,1.1-0.9,2.2-1.4,3.5c-0.6,1.2-1.1,2.3-1.7,3.3c-0.6,1-1.1,1.5-1.6,1.5c-0.4,0-0.7-0.6-0.8-1.8
	c-0.1-1.2-0.2-2.7-0.1-4.5c0-1.8,0.1-3.9,0.3-6.2c0.2-2.3,0.3-4.5,0.5-6.8c1.1-0.3,2.3-0.6,3.4-0.9c1.1-0.3,2.3-0.5,3.4-0.5
	c1.1-0.1,2.3,0,3.4,0.3c1.1,0.2,2.3,0.7,3.4,1.4c0.2,0.1,0.2-0.1,0.2-0.5c0-0.4-0.1-0.7-0.2-0.8C130.1,16.9,129,16.4,127.9,16.1z"/>
<path fill="#787878" d="M136.3,29c-0.2,0.7-0.6,1.5-1,2.4c-0.4,0.9-0.9,1.9-1.4,3c-0.5,1-1,2-1.6,2.8c-0.6,0.9-1.1,1.6-1.7,2.2
	c-0.6,0.6-1.1,0.9-1.6,0.9c-0.4,0-0.7-0.2-0.9-0.6c-0.3-0.4-0.5-0.9-0.6-1.6c-0.2-0.7-0.3-1.5-0.3-2.4c-0.1-0.9-0.1-1.8-0.1-2.8
	c0.9,0,1.7-0.2,2.4-0.9c0.7-0.6,1.4-1.4,1.9-2.3c0.5-0.9,0.9-1.9,1.2-3c0.3-1.1,0.3-2.1,0.2-3.1c-0.1-0.9-0.5-1.7-1.1-2.4
	c-0.6-0.6-1.4-1-2.5-1c-1.5,0-2.7,0.5-3.7,1.6c-1,1.1-1.8,2.4-2.3,4c-0.5,1.6-0.8,3.4-0.9,5.3c0,1.9,0.2,3.7,0.6,5.3
	c0.5,1.6,1.2,2.9,2.2,4c1,1.1,2.2,1.6,3.8,1.6c0.8,0,1.5-0.3,2.2-0.9c0.7-0.6,1.4-1.3,2-2.2c0.6-0.9,1.2-1.8,1.7-2.9
	c0.5-1.1,1-2.1,1.4-3c0.4-0.9,0.7-1.8,0.9-2.5c0.2-0.7,0.4-1.2,0.4-1.4c0.1-0.5,0-0.9-0.3-1.2c-0.3-0.3-0.5-0.3-0.6-0.1
	C136.6,27.9,136.5,28.3,136.3,29z M129.9,21.9c0.1,0.5,0,1,0,1.7c-0.1,0.7-0.2,1.5-0.4,2.3c-0.2,0.8-0.4,1.6-0.6,2.4
	c-0.3,0.8-0.6,1.4-0.9,2c-0.3,0.6-0.7,1-1,1.1c0-1.2,0.1-2.5,0.3-3.7c0.2-1.2,0.3-2.3,0.6-3.3c0.2-1,0.5-1.7,0.8-2.3
	c0.3-0.6,0.6-0.9,0.9-0.9C129.7,21.2,129.9,21.5,129.9,21.9z"/>
</svg>
