<?xml version="1.0" encoding="utf-8"?>
<!-- Generator: Adobe Illustrator 18.1.0, SVG Export Plug-In . SVG Version: 6.00 Build 0)  -->
<svg version="1.1" id="Layer_1" xmlns="http://www.w3.org/2000/svg" xmlns:xlink="http://www.w3.org/1999/xlink" x="0px" y="0px"
	 viewBox="0 0 50.9 51" enable-background="new 0 0 50.9 51" xml:space="preserve">
<path fill="#FF0078" d="M48.1,14.5c1-1,1.6-2.4,1.6-3.8c0-1.4-0.6-2.8-1.6-3.8l-4.9-4.9c-1.8-1.8-5-1.8-6.8,0L6.1,32.5
	c-0.2,0.2-0.3,0.4-0.3,0.6c-0.5,1-1.7,4.1-5.4,13.7c-0.4,0.9-0.1,2,0.6,2.8c0.5,0.5,1.2,0.8,1.8,0.8c0.3,0,0.6-0.1,0.9-0.2
	c9.6-3.7,12.7-4.9,13.7-5.4c0.2,0,0.5-0.1,0.7-0.3L48.1,14.5z M9,45.9l-4.3-4.3c1-2.6,2-5,2.6-6.4l8.2,8.2C14,44,11.5,44.9,9,45.9z
	 M38,3.6c1-1,2.8-1,3.8,0l4.9,4.9c0.6,0.6,0.9,1.4,0.9,2.3c0,0.9-0.3,1.7-0.9,2.3L17.4,42.3l-3-3l24-24.1c0.4-0.4,0.4-1.1,0-1.5
	c-0.4-0.4-1.1-0.4-1.5,0l-24,24.1l-4.5-4.5L38,3.6z M2.9,48.3c-0.2,0.1-0.4-0.1-0.4-0.1c-0.1-0.1-0.2-0.3-0.2-0.5
	c0.5-1.2,1-2.5,1.5-3.8l2.9,3C5.4,47.3,4.1,47.8,2.9,48.3z"/>
<path fill="#FF0078" d="M10.3,24.3c0.2,0.2,0.5,0.3,0.8,0.3c0.3,0,0.5-0.1,0.8-0.3c0.4-0.4,0.4-1.1,0-1.5l-1.5-1.5l2-2
	c0.4-0.4,0.4-1.1,0-1.5c-0.4-0.4-1.1-0.4-1.5,0l-2,2l-2.2-2.2l6.1-6.1c0.4-0.4,0.4-1.1,0-1.5c-0.4-0.4-1.1-0.4-1.5,0l-6.1,6.1
	l-2.5-2.5l11-11l9.2,9.2c0.4,0.4,1.1,0.4,1.5,0c0.4-0.4,0.4-1.1,0-1.5l-10-10C14.1,0.1,13.9,0,13.6,0c-0.3,0-0.6,0.1-0.8,0.3
	L0.3,12.8c-0.4,0.4-0.4,1.1,0,1.5L10.3,24.3z"/>
<path fill="#FF0078" d="M50.6,36.6L40.3,26.3c-0.4-0.4-1.1-0.4-1.5,0c-0.4,0.4-0.4,1.1,0,1.5l9.5,9.6l-11,11L34.9,46l6.1-6.1
	c0.4-0.4,0.4-1.1,0-1.5c-0.4-0.4-1.1-0.4-1.5,0l-6.1,6.1L31,42.1l2-2c0.4-0.4,0.4-1.1,0-1.5c-0.4-0.4-1.1-0.4-1.5,0l-2,2l-1.7-1.7
	c-0.4-0.4-1.1-0.4-1.5,0c-0.4,0.4-0.4,1.1,0,1.5l10.3,10.3c0.2,0.2,0.5,0.3,0.8,0.3c0.3,0,0.6-0.1,0.8-0.3l12.5-12.5
	c0.2-0.2,0.3-0.5,0.3-0.8S50.8,36.9,50.6,36.6z"/>
</svg>
