<?xml version="1.0" encoding="utf-8"?>
<!-- Generator: Adobe Illustrator 18.1.0, SVG Export Plug-In . SVG Version: 6.00 Build 0)  -->
<svg version="1.1" id="Layer_1" xmlns="http://www.w3.org/2000/svg" xmlns:xlink="http://www.w3.org/1999/xlink" x="0px" y="0px"
	 viewBox="0 0 51.7 36.5" enable-background="new 0 0 51.7 36.5" xml:space="preserve">
<path fill="#FF0078" d="M51.1,31.6L22.7,18.5c0-0.1,0-0.1,0-0.2c0-0.1,0-0.1,0-0.2L51.1,4.9c0.3-0.1,0.5-0.4,0.6-0.6
	c0.1-0.3,0.1-0.6-0.1-0.8c-1-1.9-2.5-3-4.4-3.4C41.8-0.8,33,4.5,21.1,15.7c-0.4-0.2-0.8-0.3-1.2-0.3c-0.5,0-0.9,0.1-1.3,0.3l-5.6-5
	c1.5-2.7,0.8-6.3-2-8.6C8.1-0.2,3.6-0.1,1.4,2.5C-0.9,5.2-0.3,9.4,2.8,12c1.4,1.2,3.2,1.8,4.9,1.8c1.5,0,2.8-0.5,3.9-1.3l5.6,5
	C17.1,17.7,17,18,17,18.3c0,0.3,0.1,0.6,0.2,0.9l-5.6,4.9c-2.4-1.8-6.2-1.7-8.8,0.5c-1.5,1.2-2.4,2.8-2.7,4.6
	C-0.2,31,0.3,32.7,1.4,34c1.1,1.3,2.9,2.1,4.7,2.1c1.8,0,3.5-0.6,4.9-1.8c2.7-2.3,3.5-5.9,2-8.6l5.6-4.9c0.4,0.2,0.8,0.3,1.3,0.3
	c0.5,0,0.9-0.1,1.2-0.3c11.1,10.4,19.4,15.7,24.8,15.7c0.4,0,0.8,0,1.2-0.1c2-0.3,3.5-1.5,4.4-3.4c0.1-0.3,0.2-0.6,0.1-0.8
	C51.5,32,51.3,31.7,51.1,31.6z M45.9,2.2c0.3,0,0.6,0,0.9,0.1c0.9,0.2,1.6,0.6,2.2,1.3L26,14.2C34.8,6.4,41.7,2.2,45.9,2.2z
	 M4.2,10.3C2,8.5,1.5,5.7,3,3.9C3.8,3,4.9,2.5,6.1,2.5c1.2,0,2.5,0.5,3.5,1.3c2.1,1.8,2.6,4.7,1.1,6.4C9.3,12,6.2,12,4.2,10.3z
	 M9.6,32.7c-2.1,1.7-5.1,1.7-6.6,0c-0.7-0.8-1-2-0.8-3.2c0.2-1.2,0.9-2.4,1.9-3.3c1-0.8,2.3-1.3,3.5-1.3c1.3,0,2.3,0.5,3.1,1.3
	C12.3,28,11.8,30.9,9.6,32.7z M19.2,18.3c0-0.4,0.3-0.7,0.7-0.7c0.4,0,0.7,0.3,0.7,0.7c0,0.4-0.3,0.7-0.7,0.7
	C19.5,19,19.2,18.7,19.2,18.3z M46.8,34.3c-4,0.7-11.3-3.5-20.8-11.9l23,10.7C48.4,33.7,47.7,34.2,46.8,34.3z"/>
</svg>
