<?xml version="1.0" encoding="utf-8"?>
<!-- Generator: Adobe Illustrator 18.1.0, SVG Export Plug-In . SVG Version: 6.00 Build 0)  -->
<svg version="1.1" id="Layer_1" xmlns="http://www.w3.org/2000/svg" xmlns:xlink="http://www.w3.org/1999/xlink" x="0px" y="0px"
	 viewBox="58.8 0 148.9 153.1" enable-background="new 58.8 0 148.9 153.1" xml:space="preserve">
<path fill="#F6C600" d="M200.5,53.2c-11.3-1.6-44.1-0.8-44.1-0.8s-13-38.5-15.5-45.9c-1.6-4.8-3.8-6.4-6.2-6.4c0,0-0.4,0-1.2,0
	l-0.7,0c0,0,0,0-0.8,0l0,0l0,0c-1.6,0-4,1.6-5.6,6.4c-2.2,7.8-15.3,45.9-15.3,45.9s-33.9-0.8-44.4,0.8c-11.3,1.6-8.9,10.5-3.2,15.3
	c5.6,4.8,34.6,27.4,34.6,27.4S86.9,128.1,83.7,141c-4,16.9,9.7,12.1,13.7,8.9c4-2.4,31.4-22.6,36.3-25.8c4.8,4,31.4,23.4,35.4,25.8
	c4,3.2,17.7,7.3,13.7-8.9c-3.2-12.9-14.5-45.1-14.5-45.1s29-22.6,34.6-27.4C208.6,63.6,211,54.8,200.5,53.2z"/>
</svg>
