<?xml version="1.0" encoding="UTF-8"?><!DOCTYPE svg PUBLIC "-//W3C//DTD SVG 1.1//EN" "http://www.w3.org/Graphics/SVG/1.1/DTD/svg11.dtd"><svg xmlns="http://www.w3.org/2000/svg" xmlns:xlink="http://www.w3.org/1999/xlink"><defs>
		<rect id="SVGID_1_" y="0" width="48.1" height="48"/>
	
		<rect id="SVGID_1_" width="50" height="50"/>
	
		<rect id="SVGID_1_" y="0" width="49.4" height="49.7"/>
	
		<rect id="SVGID_1_" y="0" width="49.4" height="49.7"/>
	
		<rect id="SVGID_1_" y="0" width="49.4" height="49.7"/>
	</defs><symbol id="arrow-category" viewBox="59.5 -56 147.4 266.5">
<g display="none">
	<g display="inline">
		<polygon fill="#181818" points="134.4,2.1 0,134.1 16.8,151 148.8,18.9 		"/>
	</g>
</g>
<g display="none">
	<g display="inline">
		<polygon fill="#181818" points="134.4,2.1 117.6,21.3 249.7,151 266.5,134.1 		"/>
	</g>
</g>
<g>
	<g>
		<polygon fill="#C8C8C8" points="74,210.5 191.6,92.9 206.9,78 76.4,-56 59.5,-39.2 174.8,78.5 59.5,193.7 		"/>
	</g>
</g>
</symbol><symbol id="arrow-other-grey" viewBox="0 0 266.5 153.1">
<g display="none">
	<g display="inline">
		<polygon fill="#3e3e3e" points="134.4,2.1 0,134.1 16.8,151 148.8,18.9 		"/>
	</g>
</g>
<g display="none">
	<g display="inline">
		<polygon fill="#3e3e3e" points="134.4,2.1 117.6,21.3 249.7,151 266.5,134.1 		"/>
	</g>
</g>
<g>
	<g>
		<polygon fill="#3e3e3e" points="249.7,3.6 134.4,118.9 16.8,3.6 0,20.5 134,151 148.8,135.7 266.5,18.1 		"/>
	</g>
</g>
</symbol><symbol id="arrow-other-hover" viewBox="0 0 266.5 153.1">
<g display="none">
	<g display="inline">
		<polygon fill="#db0a59" points="134.4,2.1 0,134.1 16.8,151 148.8,18.9 		"/>
	</g>
</g>
<g display="none">
	<g display="inline">
		<polygon fill="#db0a59" points="134.4,2.1 117.6,21.3 249.7,151 266.5,134.1 		"/>
	</g>
</g>
<g>
	<g>
		<polygon fill="#db0a59" points="249.7,3.6 134.4,118.9 16.8,3.6 0,20.5 134,151 148.8,135.7 266.5,18.1 		"/>
	</g>
</g>
</symbol><symbol id="arrow-other" viewBox="0 0 266.5 153.1">
<g display="none">
	<g display="inline">
		<polygon fill="#181818" points="134.4,2.1 0,134.1 16.8,151 148.8,18.9 		"/>
	</g>
</g>
<g display="none">
	<g display="inline">
		<polygon fill="#181818" points="134.4,2.1 117.6,21.3 249.7,151 266.5,134.1 		"/>
	</g>
</g>
<g>
	<g>
		<polygon fill="#181818" points="249.7,3.6 134.4,118.9 16.8,3.6 0,20.5 134,151 148.8,135.7 266.5,18.1 		"/>
	</g>
</g>
</symbol><symbol id="arrow-pink" viewBox="0 0 266.5 153.1">
<g display="none">
	<g display="inline">
		<polygon fill="#181818" points="134.4,2.1 0,134.1 16.8,151 148.8,18.9 		"/>
	</g>
</g>
<g display="none">
	<g display="inline">
		<polygon fill="#181818" points="134.4,2.1 117.6,21.3 249.7,151 266.5,134.1 		"/>
	</g>
</g>
<g>
	<g>
		<polygon fill="#FF0078" points="266.5,136.5 148.8,18.9 134,3.6 0,134.1 16.8,151 134.4,35.7 249.7,151 		"/>
	</g>
</g>
</symbol><symbol id="arrow" viewBox="0 0 266.5 153.1">
<g display="none">
	<g display="inline">
		<polygon fill="#181818" points="134.4,2.1 0,134.1 16.8,151 148.8,18.9 		"/>
	</g>
</g>
<g display="none">
	<g display="inline">
		<polygon fill="#181818" points="134.4,2.1 117.6,21.3 249.7,151 266.5,134.1 		"/>
	</g>
</g>
<g>
	<g>
		<polygon fill="#181818" points="266.5,136.5 148.8,18.9 134,3.6 0,134.1 16.8,151 134.4,35.7 249.7,151 		"/>
	</g>
</g>
</symbol><symbol id="arrow_home" viewBox="0 0 22.6 13.7">
<path fill-rule="evenodd" clip-rule="evenodd" fill="#EBEBEB" d="M0.9,13.7l-0.9-1L11.3,0l0.9,1L0.9,13.7z"/>
<path fill-rule="evenodd" clip-rule="evenodd" fill="#EBEBEB" d="M10.4,1l0.9-1l11.3,12.7l-0.9,1L10.4,1z"/>
</symbol><symbol id="back-grey" viewBox="44.4 0 178.8 153.1">
<path fill="#EBEBEB" d="M56.7,30.6v12.2h98c0,0,55.1-3.7,55.1,49s-55.1,49-55.1,49H50.6v12.2h104.1c0,0,67.4,4.9,67.4-61.2
	s-67.4-61.2-67.4-61.2H56.7z"/>
<path fill="#EBEBEB" d="M44.4,36.7L81.2,0l6.1,6.1L56.7,36.7l30.6,30.6l-6.1,6.1L44.4,36.7z"/>
</symbol><symbol id="back-pink-deep" viewBox="44.4 0 178.8 153.1">
<path fill="#DB0A59" d="M56.7,30.6v12.2h98c0,0,55.1-3.7,55.1,49s-55.1,49-55.1,49H50.6v12.2h104.1c0,0,67.4,4.9,67.4-61.2
	s-67.4-61.2-67.4-61.2H56.7z"/>
<path fill="#DB0A59" d="M44.4,36.7L81.2,0l6.1,6.1L56.7,36.7l30.6,30.6l-6.1,6.1L44.4,36.7z"/>
</symbol><symbol id="back-pink" viewBox="44.4 0 178.8 153.1">
<path fill="#FFAAD2" d="M56.7,30.6v12.2h98c0,0,55.1-3.7,55.1,49s-55.1,49-55.1,49H50.6v12.2h104.1c0,0,67.4,4.9,67.4-61.2
	s-67.4-61.2-67.4-61.2H56.7z"/>
<path fill="#FFAAD2" d="M44.4,36.7L81.2,0l6.1,6.1L56.7,36.7l30.6,30.6l-6.1,6.1L44.4,36.7z"/>
</symbol><symbol id="back" viewBox="0 0 29 25">
<path fill-rule="evenodd" clip-rule="evenodd" fill="#181818" d="M2,5v2h16c0,0,9-0.6,9,8s-9,8-9,8H1v2h17c0,0,11,0.8,11-10
	S18,5,18,5H2z"/>
<path fill-rule="evenodd" clip-rule="evenodd" fill="#181818" d="M0,6l6-6l1,1L2,6l5,5l-1,1L0,6z"/>
</symbol><symbol id="banner-arrow" viewBox="0 0 12.7 11.1">
<g>
	<g>
		<rect y="5" fill-rule="evenodd" clip-rule="evenodd" fill="#CDCDCD" width="12" height="1"/>
	</g>
</g>
<g>
	<g>
		
			<rect x="9.4" y="-0.2" transform="matrix(0.7134 -0.7007 0.7007 0.7134 0.4987 7.8923)" fill-rule="evenodd" clip-rule="evenodd" fill="#CDCDCD" width="1" height="7"/>
	</g>
</g>
<g>
	<g>
		
			<rect x="9.4" y="4.1" transform="matrix(-0.7134 -0.7007 0.7007 -0.7134 11.6223 19.9884)" fill-rule="evenodd" clip-rule="evenodd" fill="#CDCDCD" width="1" height="7"/>
	</g>
</g>
</symbol><symbol id="cart" viewBox="0 0 48.1 48">
<g>
	
	<clipPath id="SVGID_2_">
		<use xlink:href="#SVGID_1_" overflow="visible"/>
	</clipPath>
	<path clip-path="url(#SVGID_2_)" fill="#E1E1E1" stroke="#E1E1E1" stroke-miterlimit="10" d="M45.6,45.5H2.5V12.7h43.1V45.5z
		 M45.6,10.7H2.5c-1.1,0-2,0.9-2,2v32.8c0,1.1,0.9,2,2,2h43.1c1.1,0,2-0.9,2-2V12.7C47.6,11.6,46.7,10.7,45.6,10.7"/>
	<path clip-path="url(#SVGID_2_)" fill="#E1E1E1" stroke="#E1E1E1" stroke-miterlimit="10" d="M45.6,45.5H2.5V12.7h43.1V45.5z
		 M45.6,10.7H2.5c-1.1,0-2,0.9-2,2v32.8c0,1.1,0.9,2,2,2h43.1c1.1,0,2-0.9,2-2V12.7C47.6,11.6,46.7,10.7,45.6,10.7z"/>
	
		<path clip-path="url(#SVGID_2_)" fill="none" stroke="#E1E1E1" stroke-width="3" stroke-linecap="round" stroke-miterlimit="10" d="
		M13,20.6C13,10,18,1.5,24.1,1.5s11,8.5,11,19.1"/>
</g>
</symbol><symbol id="checkbox" viewBox="0 0 15.9 12">
<path fill-rule="evenodd" clip-rule="evenodd" fill="#FF0078" d="M0,6.3l1.1-1.1l5.5,5.5L5.5,12L0,6.3z"/>
<path fill-rule="evenodd" clip-rule="evenodd" fill="#FF0078" d="M14.8,0l1.1,1L5.5,12l-1.2-1.2L14.8,0z"/>
</symbol><symbol id="cost" viewBox="0 0 50.9 38.2">
<path fill="#FF0078" d="M49.8,17.1h-3.2V9.4c0-0.6-0.5-1.1-1.1-1.1H4.4c-1.2,0-2.3-1.4-2.3-3.1c0-1.7,1-3.1,2.3-3.1h41.2
	c0.6,0,1.1-0.5,1.1-1.1c0-0.6-0.5-1.1-1.1-1.1H4.4C2,0,0,2.3,0,5.2v28.6c0,2.4,2,4.4,4.4,4.4h41.2c0.6,0,1.1-0.5,1.1-1.1v-7.5h3.2
	c0.6,0,1.1-0.5,1.1-1.1V18.2C50.9,17.6,50.4,17.1,49.8,17.1z M44.5,36.1H4.4c-1.3,0-2.3-1-2.3-2.3V9.7c0.7,0.5,1.4,0.8,2.3,0.8h40.1
	v6.6h-4.1c-3.5,0-6.3,2.8-6.3,6.3c0,3.5,2.8,6.3,6.3,6.3h4.1V36.1z M48.8,27.6h-8.4c-2.3,0-4.2-1.9-4.2-4.2s1.9-4.2,4.2-4.2h8.4
	V27.6z"/>
<path fill="#FF0078" d="M45.5,4.2H5.1C4.5,4.2,4,4.7,4,5.2c0,0.6,0.5,1.1,1.1,1.1h40.5c0.6,0,1.1-0.5,1.1-1.1
	C46.6,4.7,46.1,4.2,45.5,4.2z"/>
<path fill="#FF0078" d="M40.3,22.7c-0.2,0.2-0.3,0.5-0.3,0.7c0,0.3,0.1,0.5,0.3,0.7c0.2,0.2,0.5,0.3,0.8,0.3c0.3,0,0.6-0.1,0.8-0.3
	c0.2-0.2,0.3-0.5,0.3-0.7c0-0.3-0.1-0.6-0.3-0.8C41.4,22.3,40.8,22.3,40.3,22.7z"/>
</symbol><symbol id="cross" viewBox="0 0 26 26">
<path fill-rule="evenodd" clip-rule="evenodd" fill="#181818" d="M0,1.6L1.6,0L26,24.4L24.4,26L0,1.6z"/>
<path fill-rule="evenodd" clip-rule="evenodd" fill="#181818" d="M1.6,26L0,24.4L24.4,0L26,1.6L1.6,26z"/>
</symbol><symbol id="delete" viewBox="0 0 11 11">
<path fill-rule="evenodd" clip-rule="evenodd" fill="#181818" d="M11,0.7L10.2,0L0,10.2L0.7,11L11,0.7z"/>
<path fill-rule="evenodd" clip-rule="evenodd" fill="#181818" d="M10.2,11l0.7-0.7L0.7,0L0,0.7L10.2,11z"/>
</symbol><symbol id="dress" viewBox="0 0 33.9 49.3">
<path fill="#FF0078" d="M33.9,47.9l-7.9-27.2c-0.2-0.7-0.6-1.3-1.2-1.8c0.5-0.4,1-1,1.2-1.6l1.8-4.7c0.5-1.4,0.3-2.9-0.6-4.2
	c-0.9-1.2-2.3-1.9-3.8-1.9V1c0-0.6-0.5-1-1.1-1c-0.6,0-1.1,0.5-1.1,1v5.6c-2.7,0.9-6,0.9-8.7,0V1c0-0.6-0.5-1-1.1-1
	c-0.6,0-1.1,0.5-1.1,1v5.5C8.9,6.6,7.5,7.3,6.7,8.5c-0.9,1.2-1.1,2.8-0.6,4.2l1.8,4.7C8.1,18,8.6,18.5,9.1,19
	c-0.5,0.5-1,1.1-1.2,1.8L0,47.9c-0.1,0.3,0,0.7,0.2,0.9c0.2,0.3,0.5,0.4,0.9,0.4h31.7c0.3,0,0.7-0.2,0.9-0.4
	C33.9,48.6,34,48.3,33.9,47.9z M8.2,11.9C7.9,11.2,8,10.3,8.5,9.7c0.5-0.7,1.2-1,2.1-1h1.2c3.2,1.1,7.1,1.1,10.3,0h1.2
	c0.8,0,1.6,0.4,2.1,1c0.5,0.7,0.6,1.5,0.3,2.2L24,16.6c-0.3,0.7-1,1.2-1.8,1.2H22h-10h-0.2c-0.8,0-1.5-0.5-1.8-1.2L8.2,11.9z
	 M2.5,47.2l7.5-25.9c0.2-0.8,1-1.4,1.9-1.4h10c0.9,0,1.6,0.6,1.9,1.4l7.5,25.9H2.5z"/>
<path fill="#FF0078" d="M15.9,30.5c-0.6,0-1.1,0.5-1.1,1v6.4c0,0.6,0.5,1,1.1,1c0.6,0,1.1-0.5,1.1-1v-6.4
	C17,30.9,16.5,30.5,15.9,30.5z"/>
<path fill="#FF0078" d="M12.5,25.1c-0.6-0.1-1.1,0.3-1.2,0.9L8.6,42.9c-0.1,0.6,0.3,1.1,0.9,1.2c0.1,0,0.1,0,0.2,0
	c0.5,0,1-0.4,1.1-0.9l2.7-16.9C13.5,25.8,13.1,25.2,12.5,25.1z"/>
</symbol><symbol id="edit" viewBox="57 0 152.9 153.1">
<path display="none" fill="#C8C8C8" d="M196.6,49.8l-36.2-37.1l-4.5,3.6l36.2,38L196.6,49.8z"/>
<path display="none" fill="#C8C8C8" d="M88.8,117.7l85.1-87l4.5,4.5l-84.2,85.1L88.8,117.7z"/>
<path display="none" fill="#C8C8C8" d="M66.2,129.5l15.4,15.4l-6.3,2.7l-10.9-11.8L66.2,129.5z"/>
<path display="none" fill="none" stroke="#C8C8C8" stroke-width="0.75" stroke-miterlimit="10" d="M72.5,106c0,0,9.1,2.7,19.9,12.7
	s13.6,19.9,13.6,19.9"/>
<g>
	<path fill="#C8C8C8" d="M198.7,11.7c13.7,13.7-7.9,35.1-7.9,35.1L104.2,134c-14.5,4.5-29.9,9.1-38.9,10.9c1.8-9.1,6.3-24.5,10.9-38
		l87.2-86.5C163.3,20.4,185-1.9,198.7,11.7z M157.8,15.2c-1.5,1.5-88,88-88,88s-14.5,48-12.7,49.8c0,0,0,0,0.9,0
		c7.2,0,49.8-12.7,49.8-12.7s87.6-87.1,89.2-89.2c1.6-2,22.9-26.8,6.8-44C186.3-11.6,159.3,13.8,157.8,15.2z"/>
</g>
<path fill="none" stroke="#C8C8C8" stroke-width="8" stroke-miterlimit="10" d="M74.4,104.2c8.2,1.8,15.4,4.5,20.8,10.9
	c7.2,6.3,10.9,20.8,10.9,20.8"/>
<line fill="none" stroke="#C8C8C8" stroke-width="8" stroke-miterlimit="10" x1="66.2" y1="127.7" x2="80.7" y2="144"/>
<line fill="none" stroke="#C8C8C8" stroke-width="8" stroke-miterlimit="10" x1="165.8" y1="13.6" x2="197.5" y2="39.9"/>
<path fill="none" stroke="#C8C8C8" stroke-width="0.75" stroke-miterlimit="10" d="M179.4,28.1"/>
<line fill="none" stroke="#C8C8C8" stroke-width="8" stroke-miterlimit="10" x1="96.1" y1="115" x2="182.1" y2="28.1"/>
<path fill="none" stroke="#C8C8C8" stroke-width="0.75" stroke-miterlimit="10" d="M74.4,137.6"/>
<path fill="none" stroke="#C8C8C8" stroke-width="0.75" stroke-miterlimit="10" d="M64.7,135.9"/>
</symbol><symbol id="exit" viewBox="52 0 161.4 153.1">
<path fill="#181818" d="M97.2,36V9c0,0,0.8-9,9.9-9c9.9,0,98.1,0,98.1,0s8.1,0,8.1,9s0,132.4,0,132.4s1.4,11.7-8.1,11.7
	c-7.2,0-99,0-99,0s-9,0-9-11.7c0-9,0-24.3,0-24.3h9v27h99V9h-99v27H97.2z"/>
<path fill="#181818" d="M64.8,72h64.8c1.8,0,3.6,1.8,3.6,3.6v1.8c0,1.8-1.8,3.6-3.6,3.6H64.8c-1.8,0-3.6-1.8-3.6-3.6v-1.8
	C61.2,73.8,63,72,64.8,72z"/>
<path fill="#181818" d="M54,71.1l23.4-23.4c2.7-2.7,6.3-2.7,9,0c2.7,2.7,2.7,6.3,0,9L63,80.1c-2.7,2.7-6.3,2.7-9,0
	C51.3,77.4,51.3,72.9,54,71.1z"/>
<path fill="#181818" d="M86.4,93.6L63,71.1c-2.7-2.7-6.3-2.7-9,0c-2.7,2.7-2.7,6.3,0,9l23.4,23.4c2.7,2.7,6.3,2.7,9,0
	C89.1,100.8,89.1,96.3,86.4,93.6z"/>
</symbol><symbol id="help" viewBox="0 0 20 20">
<path fill="#C8C8C8" d="M10,20C4.5,20,0,15.5,0,10C0,4.5,4.5,0,10,0c5.5,0,10,4.5,10,10C20,15.5,15.5,20,10,20z M10,0.8
	c-5.1,0-9.2,4.1-9.2,9.2c0,5.1,4.1,9.2,9.2,9.2c5.1,0,9.2-4.1,9.2-9.2C19.2,4.9,15.1,0.8,10,0.8z"/>
<path fill="#C8C8C8" d="M9.5,12.1l0-0.4c-0.1-0.8,0.2-1.6,1-2.5c0.7-0.8,1.1-1.3,1.1-2C11.6,6.5,11,6.1,10,6C9.4,6,8.8,6.2,8.4,6.5
	L8,5.6C8.5,5.2,9.5,5,10.3,5C12.2,5,13,6,13,7.1c0,1-0.6,1.7-1.4,2.5c-0.7,0.7-1,1.4-0.9,2.1l0,0.4H9.5z M9.1,14.1
	c0-0.5,0.4-0.9,1-0.9c0.6,0,1,0.4,1,0.9c0,0.5-0.4,0.9-1,0.9C9.5,15,9.1,14.6,9.1,14.1z"/>
</symbol><symbol id="menu" viewBox="0 0 24 18">
<path fill-rule="evenodd" clip-rule="evenodd" fill="#181818" d="M0,16h24v2H0V16z"/>
<path fill-rule="evenodd" clip-rule="evenodd" fill="#181818" d="M0,8h24v2H0V8z"/>
<path fill-rule="evenodd" clip-rule="evenodd" fill="#181818" d="M0,0h24v2H0V0z"/>
</symbol><symbol id="pen" viewBox="0 0 50.9 51">
<path fill="#FF0078" d="M48.1,14.5c1-1,1.6-2.4,1.6-3.8c0-1.4-0.6-2.8-1.6-3.8l-4.9-4.9c-1.8-1.8-5-1.8-6.8,0L6.1,32.5
	c-0.2,0.2-0.3,0.4-0.3,0.6c-0.5,1-1.7,4.1-5.4,13.7c-0.4,0.9-0.1,2,0.6,2.8c0.5,0.5,1.2,0.8,1.8,0.8c0.3,0,0.6-0.1,0.9-0.2
	c9.6-3.7,12.7-4.9,13.7-5.4c0.2,0,0.5-0.1,0.7-0.3L48.1,14.5z M9,45.9l-4.3-4.3c1-2.6,2-5,2.6-6.4l8.2,8.2C14,44,11.5,44.9,9,45.9z
	 M38,3.6c1-1,2.8-1,3.8,0l4.9,4.9c0.6,0.6,0.9,1.4,0.9,2.3c0,0.9-0.3,1.7-0.9,2.3L17.4,42.3l-3-3l24-24.1c0.4-0.4,0.4-1.1,0-1.5
	c-0.4-0.4-1.1-0.4-1.5,0l-24,24.1l-4.5-4.5L38,3.6z M2.9,48.3c-0.2,0.1-0.4-0.1-0.4-0.1c-0.1-0.1-0.2-0.3-0.2-0.5
	c0.5-1.2,1-2.5,1.5-3.8l2.9,3C5.4,47.3,4.1,47.8,2.9,48.3z"/>
<path fill="#FF0078" d="M10.3,24.3c0.2,0.2,0.5,0.3,0.8,0.3c0.3,0,0.5-0.1,0.8-0.3c0.4-0.4,0.4-1.1,0-1.5l-1.5-1.5l2-2
	c0.4-0.4,0.4-1.1,0-1.5c-0.4-0.4-1.1-0.4-1.5,0l-2,2l-2.2-2.2l6.1-6.1c0.4-0.4,0.4-1.1,0-1.5c-0.4-0.4-1.1-0.4-1.5,0l-6.1,6.1
	l-2.5-2.5l11-11l9.2,9.2c0.4,0.4,1.1,0.4,1.5,0c0.4-0.4,0.4-1.1,0-1.5l-10-10C14.1,0.1,13.9,0,13.6,0c-0.3,0-0.6,0.1-0.8,0.3
	L0.3,12.8c-0.4,0.4-0.4,1.1,0,1.5L10.3,24.3z"/>
<path fill="#FF0078" d="M50.6,36.6L40.3,26.3c-0.4-0.4-1.1-0.4-1.5,0c-0.4,0.4-0.4,1.1,0,1.5l9.5,9.6l-11,11L34.9,46l6.1-6.1
	c0.4-0.4,0.4-1.1,0-1.5c-0.4-0.4-1.1-0.4-1.5,0l-6.1,6.1L31,42.1l2-2c0.4-0.4,0.4-1.1,0-1.5c-0.4-0.4-1.1-0.4-1.5,0l-2,2l-1.7-1.7
	c-0.4-0.4-1.1-0.4-1.5,0c-0.4,0.4-0.4,1.1,0,1.5l10.3,10.3c0.2,0.2,0.5,0.3,0.8,0.3c0.3,0,0.6-0.1,0.8-0.3l12.5-12.5
	c0.2-0.2,0.3-0.5,0.3-0.8S50.8,36.9,50.6,36.6z"/>
</symbol><symbol id="personal" viewBox="0 0 50 50">
<g>
	
	<clipPath id="SVGID_2_">
		<use xlink:href="#SVGID_1_" overflow="visible"/>
	</clipPath>
	
		<path clip-path="url(#SVGID_2_)" fill="none" stroke="#E1E1E1" stroke-width="4" stroke-linecap="round" stroke-linejoin="round" stroke-miterlimit="10" d="
		M34.5,11.4c0,5.2-4.3,9.4-9.5,9.4c-5.3,0-9.5-4.2-9.5-9.4C15.5,6.2,19.7,2,25,2C30.3,2,34.5,6.2,34.5,11.4z"/>
	
		<path clip-path="url(#SVGID_2_)" fill="none" stroke="#E1E1E1" stroke-width="4" stroke-linecap="round" stroke-linejoin="round" stroke-miterlimit="10" d="
		M25,25.3C12.3,25.3,2,35.5,2,48h46C48,35.5,37.7,25.3,25,25.3z"/>
</g>
</symbol><symbol id="scissors" viewBox="0 0 51.7 36.5">
<path fill="#FF0078" d="M51.1,31.6L22.7,18.5c0-0.1,0-0.1,0-0.2c0-0.1,0-0.1,0-0.2L51.1,4.9c0.3-0.1,0.5-0.4,0.6-0.6
	c0.1-0.3,0.1-0.6-0.1-0.8c-1-1.9-2.5-3-4.4-3.4C41.8-0.8,33,4.5,21.1,15.7c-0.4-0.2-0.8-0.3-1.2-0.3c-0.5,0-0.9,0.1-1.3,0.3l-5.6-5
	c1.5-2.7,0.8-6.3-2-8.6C8.1-0.2,3.6-0.1,1.4,2.5C-0.9,5.2-0.3,9.4,2.8,12c1.4,1.2,3.2,1.8,4.9,1.8c1.5,0,2.8-0.5,3.9-1.3l5.6,5
	C17.1,17.7,17,18,17,18.3c0,0.3,0.1,0.6,0.2,0.9l-5.6,4.9c-2.4-1.8-6.2-1.7-8.8,0.5c-1.5,1.2-2.4,2.8-2.7,4.6
	C-0.2,31,0.3,32.7,1.4,34c1.1,1.3,2.9,2.1,4.7,2.1c1.8,0,3.5-0.6,4.9-1.8c2.7-2.3,3.5-5.9,2-8.6l5.6-4.9c0.4,0.2,0.8,0.3,1.3,0.3
	c0.5,0,0.9-0.1,1.2-0.3c11.1,10.4,19.4,15.7,24.8,15.7c0.4,0,0.8,0,1.2-0.1c2-0.3,3.5-1.5,4.4-3.4c0.1-0.3,0.2-0.6,0.1-0.8
	C51.5,32,51.3,31.7,51.1,31.6z M45.9,2.2c0.3,0,0.6,0,0.9,0.1c0.9,0.2,1.6,0.6,2.2,1.3L26,14.2C34.8,6.4,41.7,2.2,45.9,2.2z
	 M4.2,10.3C2,8.5,1.5,5.7,3,3.9C3.8,3,4.9,2.5,6.1,2.5c1.2,0,2.5,0.5,3.5,1.3c2.1,1.8,2.6,4.7,1.1,6.4C9.3,12,6.2,12,4.2,10.3z
	 M9.6,32.7c-2.1,1.7-5.1,1.7-6.6,0c-0.7-0.8-1-2-0.8-3.2c0.2-1.2,0.9-2.4,1.9-3.3c1-0.8,2.3-1.3,3.5-1.3c1.3,0,2.3,0.5,3.1,1.3
	C12.3,28,11.8,30.9,9.6,32.7z M19.2,18.3c0-0.4,0.3-0.7,0.7-0.7c0.4,0,0.7,0.3,0.7,0.7c0,0.4-0.3,0.7-0.7,0.7
	C19.5,19,19.2,18.7,19.2,18.3z M46.8,34.3c-4,0.7-11.3-3.5-20.8-11.9l23,10.7C48.4,33.7,47.7,34.2,46.8,34.3z"/>
</symbol><symbol id="search-field" viewBox="0 0 49.4 49.7">
<g>
	
	<clipPath id="SVGID_2_">
		<use xlink:href="#SVGID_1_" overflow="visible"/>
	</clipPath>
	
		<circle clip-path="url(#SVGID_2_)" fill="none" stroke="#C8C8C8" stroke-width="4" stroke-miterlimit="10" cx="21.8" cy="21.8" r="19.8"/>
	
		<line clip-path="url(#SVGID_2_)" fill="none" stroke="#C8C8C8" stroke-width="4" stroke-miterlimit="10" x1="35.7" y1="36" x2="48" y2="48.3"/>
</g>
</symbol><symbol id="search-hover" viewBox="0 0 49.4 49.7">
<g>
	
	<clipPath id="SVGID_2_">
		<use xlink:href="#SVGID_1_" overflow="visible"/>
	</clipPath>
	
		<circle clip-path="url(#SVGID_2_)" fill="none" stroke="#DB0A59" stroke-width="4" stroke-miterlimit="10" cx="21.8" cy="21.8" r="19.8"/>
	
		<line clip-path="url(#SVGID_2_)" fill="none" stroke="#DB0A59" stroke-width="4" stroke-miterlimit="10" x1="35.7" y1="36" x2="48" y2="48.3"/>
</g>
</symbol><symbol id="search" viewBox="0 0 49.4 49.7">
<g>
	
	<clipPath id="SVGID_2_">
		<use xlink:href="#SVGID_1_" overflow="visible"/>
	</clipPath>
	
		<circle clip-path="url(#SVGID_2_)" fill="none" stroke="#E1E1E1" stroke-width="4" stroke-miterlimit="10" cx="21.8" cy="21.8" r="19.8"/>
	
		<line clip-path="url(#SVGID_2_)" fill="none" stroke="#E1E1E1" stroke-width="4" stroke-miterlimit="10" x1="35.7" y1="36" x2="48" y2="48.3"/>
</g>
</symbol><symbol id="star-grey" viewBox="58.8 0 148.9 153.1">
<path fill="#C8C8C8" d="M200.5,53.2c-11.3-1.6-44.1-0.8-44.1-0.8s-13-38.5-15.5-45.9c-1.6-4.8-3.8-6.4-6.2-6.4c0,0-0.4,0-1.2,0
	l-0.7,0c0,0,0,0-0.8,0l0,0l0,0c-1.6,0-4,1.6-5.6,6.4c-2.2,7.8-15.3,45.9-15.3,45.9s-33.9-0.8-44.4,0.8c-11.3,1.6-8.9,10.5-3.2,15.3
	c5.6,4.8,34.6,27.4,34.6,27.4S86.9,128.1,83.7,141c-4,16.9,9.7,12.1,13.7,8.9c4-2.4,31.4-22.6,36.3-25.8c4.8,4,31.4,23.4,35.4,25.8
	c4,3.2,17.7,7.3,13.7-8.9c-3.2-12.9-14.5-45.1-14.5-45.1s29-22.6,34.6-27.4C208.6,63.6,211,54.8,200.5,53.2z"/>
</symbol><symbol id="star" viewBox="58.8 0 148.9 153.1">
<path fill="#F6C600" d="M200.5,53.2c-11.3-1.6-44.1-0.8-44.1-0.8s-13-38.5-15.5-45.9c-1.6-4.8-3.8-6.4-6.2-6.4c0,0-0.4,0-1.2,0
	l-0.7,0c0,0,0,0-0.8,0l0,0l0,0c-1.6,0-4,1.6-5.6,6.4c-2.2,7.8-15.3,45.9-15.3,45.9s-33.9-0.8-44.4,0.8c-11.3,1.6-8.9,10.5-3.2,15.3
	c5.6,4.8,34.6,27.4,34.6,27.4S86.9,128.1,83.7,141c-4,16.9,9.7,12.1,13.7,8.9c4-2.4,31.4-22.6,36.3-25.8c4.8,4,31.4,23.4,35.4,25.8
	c4,3.2,17.7,7.3,13.7-8.9c-3.2-12.9-14.5-45.1-14.5-45.1s29-22.6,34.6-27.4C208.6,63.6,211,54.8,200.5,53.2z"/>
</symbol></svg>